# xmcd
# 
# Track frame offsets:
#     150
#     18482
#     37229
#     55898
#     73748
#     92784
#     110529
#     128754
#     146248
#     163336
#     180349
#     198697
#     217874
# 
# Disc length: 3185
# 
# Revision: 0
# Processed by: cddbd v1.5.2PL0 Copyright (c) Steve Scherf et al.
# Submitted via: fre:ac v1.0.31
# 
DISCID=c60c6f0d
DTITLE=Various Artist - 「ご注文はうさぎですか？？」 キャラクターソング・セレクションアルバム - order the songs2 [CD1]
DYEAR=2017
DGENRE=Anime
TTITLE0=Petit Rabbit's - ノーポイッ！
TTITLE1=チマメ隊 - ときめきLOOPにのって
TTITLE2=ココア - きらきら印を見つけたら
TTITLE3=チノ - お菓子な夢をおひとつどうぞ♪
TTITLE4=リゼ - 鏡合わせのアンビバレット
TTITLE5=千夜 - ハートふるムーン
TTITLE6=シャロ - 夢・もしもしもしも？
TTITLE7=マヤ - わくわくDIARY
TTITLE8=メグ - おもちゃ箱ハピズム♪
TTITLE9=モカ - おいしいパンの作り方
TTITLE10=青山ブルーマウンテン - きらめきを探しに
TTITLE11=チマメ隊 - ときめきポポロン♪
TTITLE12=Petit Rabbit's - なんとなくミライ
EXTD=
EXTT0=
EXTT1=
EXTT2=
EXTT3=
EXTT4=
EXTT5=
EXTT6=
EXTT7=
EXTT8=
EXTT9=
EXTT10=
EXTT11=
EXTT12=
PLAYORDER=
